<svg xmlns="http://www.w3.org/2000/svg" width="379.122" height="155.833" viewBox="0 0 379.122 155.833">
  <g id="şile_bezi" data-name="şile bezi" transform="translate(-200.121 -540)">
    <path id="Path_1" data-name="Path 1" d="M87.129,110.237q-3.475,5.054-13.7,8.979t-26,6.12q-1.49.174-4.611.306t-6.428.171q-3.306.038-6.212.029a23.482,23.482,0,0,1-3.977-.233q-12.893-1.978-18.1-9.734a11.567,11.567,0,0,1-1.744-2.992,11.123,11.123,0,0,1-.612-3.24,10.833,10.833,0,0,1,.059-1.981,16.918,16.918,0,0,1,.53-1.921,9.737,9.737,0,0,1,1.849-3.063A19.953,19.953,0,0,1,11.57,99.9q2.489-1.57,2.975-1.393a2.075,2.075,0,0,1,1.4,1.521,3.649,3.649,0,0,1,0,2.5,3.409,3.409,0,0,1-1.43,1.677,15.866,15.866,0,0,0-2.179,2.23,3.935,3.935,0,0,0-.958,1.738q-.007.93,2.027,2.434a19.239,19.239,0,0,0,4.589,2.484,80.8,80.8,0,0,0,13.163,3.282,122.515,122.515,0,0,0,15.523,1.612q3.621.158,7.378.008t7.369-.572q3.61-.421,6.849-1.033a42.047,42.047,0,0,0,5.809-1.492q12.63-4.266,12.745-11.714T74.554,86.145q-3.186-2.416-7.2-4.967T58.2,75.917Q53.06,73.207,46.62,70.3t-14.5-6.263q-5.263-2.289-8.879-3.9t-6.2-2.82q-2.582-1.208-4.319-2.167T9.351,53.106q-6.805-4.549-8.7-9.787a8.121,8.121,0,0,1-.578-1.966A24.427,24.427,0,0,1,0,38.748q.007-.93.055-1.516t.109-1.059A6.093,6.093,0,0,1,.4,35.159q.169-.543.534-1.4A22.653,22.653,0,0,1,4.074,28.34a37.783,37.783,0,0,1,5-5.407q1.268-1.077,3.19-2.522t4.08-2.859q2.158-1.413,4.438-2.784t4.147-2.285a115.858,115.858,0,0,1,18.153-7.7A106.711,106.711,0,0,1,60.937.49,31.4,31.4,0,0,1,64.72.048Q66.8-.079,68.835-.027T72.69.16a16.537,16.537,0,0,1,3.017.46q7.158,1.6,9.413,5.985a5.768,5.768,0,0,1,.75,2.933,10.884,10.884,0,0,1-.384,3.182,11.657,11.657,0,0,1-1.872,3.356,22.126,22.126,0,0,1-3.046,3.26,37.694,37.694,0,0,1-4.944,3.424,45.834,45.834,0,0,1-5.763,2.881A43.927,43.927,0,0,1,64.049,27.6a20.793,20.793,0,0,1-4.966.755,7.4,7.4,0,0,1-2.6-.335,3.6,3.6,0,0,1-1.441-1.4,4.12,4.12,0,0,1-.464-1.979,4.12,4.12,0,0,1,.352-1.958,2.007,2.007,0,0,1,1.312-1.2,10.47,10.47,0,0,1,2.834-.1,26.369,26.369,0,0,0,7.737-.9A42.959,42.959,0,0,0,74.51,17.72,23.375,23.375,0,0,0,80.4,13.895q2.307-2.129,2.308-4.1a3.667,3.667,0,0,0-1.218-2.472,10.033,10.033,0,0,0-3.2-2.065,24.18,24.18,0,0,0-4.755-1.419,28.778,28.778,0,0,0-5.757-.546A54.873,54.873,0,0,0,57.1,4.42a101.9,101.9,0,0,0-11.89,3.133A116.545,116.545,0,0,0,33.1,12.28a124.09,124.09,0,0,0-11.339,5.857,83.6,83.6,0,0,0-9.635,6.528A42.16,42.16,0,0,0,5.187,31.4q-5.465,6.913-1.519,12.84a20.022,20.022,0,0,0,3.077,3.474,29.764,29.764,0,0,0,4.875,3.437q3.056,1.791,7.662,3.925t11.2,4.848Q56.613,70.812,70.864,80.414T88.208,98.6q.4,1.462.547,2.2a12.063,12.063,0,0,1,.1,2.37,12.3,12.3,0,0,1-.437,3.711,10.919,10.919,0,0,1-1.664,3.157l.371.189Zm45.218-45.483q.9-.222,1.051.051t-.742.61q-1.78.672-4.977,2.15t-8.585,4.083q-5.259,2.707-9.123,4.436t-6.592,2.746a34.128,34.128,0,0,1-4.484,1.4,7.8,7.8,0,0,1-2.943.17q-5.574-.976-4.99-7.9a8.588,8.588,0,0,1,1.8-4.974,3.1,3.1,0,0,1,5.43,1.223,2.817,2.817,0,0,1,0,1.51,8.033,8.033,0,0,1-1.205,2.116,10.776,10.776,0,0,0-1.243,2.3,4.047,4.047,0,0,0-.379,1.728q.214,1.833,3.767,1.418,4.585-.536,19.467-7.388,5.846-2.658,9.337-4.112a24.238,24.238,0,0,1,4.406-1.561Zm-33.214-2.39a3.664,3.664,0,0,1-1.562-.282c-1.074-.417-1.639-1.434-1.674-3.057a6.389,6.389,0,0,1,1.251-4.038,3.576,3.576,0,0,1,2.96-1.682,3.421,3.421,0,0,1,1.418.706,2.459,2.459,0,0,1,.9,1.231,2.894,2.894,0,0,1-.1,1.637,4.471,4.471,0,0,1-1.016,1.745,1.89,1.89,0,0,0-.412,1.442c.161,1.375-.389,2.136-1.631,2.282ZM171.519.345q2.229,2.178-.013,8.83a65.134,65.134,0,0,1-4.7,10.482q-3.246,6.013-7.339,12.243t-8.553,11.8a92.036,92.036,0,0,1-8.224,9.151l-2.725,2.526-.5,1.685q-.323,1.2-.825,2.885t-.974,3.6q-.472,1.915-.946,3.828t-.872,3.471q-1.068,4.772-1.553,8.082t-.722,6.242q-.191,2.345-.211,3.161a4.479,4.479,0,0,0,.315,1.705,4.4,4.4,0,0,1,.191,1.14,2,2,0,0,1-.219.607,1.051,1.051,0,0,1-1.1.535,2.72,2.72,0,0,1-1.348-.6,4.718,4.718,0,0,1-1.319-2.344,24.091,24.091,0,0,1-.556-4.756,32.69,32.69,0,0,1,.041-5.117,44.919,44.919,0,0,1,.86-5.56q.639-2.979,1.684-6.47t2.524-7.729q.5-1.684.99-2.962t.578-1.52q2.423-6.091,4.984-12.025t4.969-11.153q2.411-5.219,4.533-9.417t3.676-6.82a64.628,64.628,0,0,1,6.724-9.557A24.419,24.419,0,0,1,167.167.856a5.456,5.456,0,0,1,2.461-.81,2.706,2.706,0,0,1,1.908.417l-.013-.115ZM164,22.484q1.8-3.464,3.351-6.607t2.572-5.818a40.569,40.569,0,0,0,1.5-4.589,8.942,8.942,0,0,0,.352-2.945,2.153,2.153,0,0,0-.69-1.429A1.486,1.486,0,0,0,169.927.65a8.718,8.718,0,0,0-3.3,1.6A23.48,23.48,0,0,0,162.91,5.71a49.111,49.111,0,0,0-3.832,4.979q-1.933,2.841-3.762,6.075-2.282,4.333-4.709,9.9T145.694,38.8q-.614,1.7-1.412,3.824t-1.442,4.061q-.645,1.935-1.122,3.326a10.7,10.7,0,0,0-.463,1.507q-.087.243,1.338-.97a33.271,33.271,0,0,0,2.87-2.775,105.327,105.327,0,0,0,9.682-11.588A118.239,118.239,0,0,0,163.757,22.4l.242.088Zm17.15,37.378q.688-.08.626.391a2.272,2.272,0,0,1-.48.87q-.331.154-2.6,1.582t-5.042,3.087q-2.769,1.66-5.264,3.172T165.246,70.9a75.981,75.981,0,0,1-9.675,5.2,15.97,15.97,0,0,1-6.266,1.545,5.676,5.676,0,0,1-5.05-2.953q-1.546-2.781-.141-6.664a10.883,10.883,0,0,1,2.774-4.1,6.683,6.683,0,0,1,3.587-2.1,2.5,2.5,0,0,1,2.851,1.526,2.693,2.693,0,0,1,.337.89,4.918,4.918,0,0,1-.094,1.172,10.962,10.962,0,0,1-1.742,3.98,10.634,10.634,0,0,1-2.893,3.069q-1.512.99.39,1.348,2.589.278,7.527-1.693a119.1,119.1,0,0,0,13.652-6.94q3.379-1.906,6.5-3.547a33.261,33.261,0,0,1,3.793-1.837l.357.074ZM149.826,66.2a10.517,10.517,0,0,0-1.286,2.416,5.728,5.728,0,0,0-.612,2.221q.067.572,1.47-1.333a8.392,8.392,0,0,0,1.046-1.981,4.635,4.635,0,0,0,.474-1.914c-.027-.229-.093-.3-.2-.21s-.366.352-.779.788l-.115.013Z" transform="translate(200.118 557.112)" fill="#fff"/>
    <path id="Path_2" data-name="Path 2" d="M360.552,1007.766a1.825,1.825,0,0,1,.781,1.709,17.819,17.819,0,0,1-1.3,3.811q-.54,1.341-1.307,3.231t-1.307,3.231a22.542,22.542,0,0,1-1.59,3.787,1.211,1.211,0,0,1-1.406.4,1.186,1.186,0,0,1-.936-1.052,13.021,13.021,0,0,1,.528-3.43q.283-1.544.771-3.343t1-3.369q.514-1.57,1.01-2.791a7.582,7.582,0,0,1,.8-1.6q1.288-1.893,2.953-.577Z" transform="translate(-110.546 -328.164)" fill="#fff"/>
    <path id="Path_3" data-name="Path 3" d="M709.211,860.215a99.079,99.079,0,0,1,13.32-5.034,70.627,70.627,0,0,1,12.259-2.545,40.179,40.179,0,0,1,10.245.058,17.166,17.166,0,0,1,7.362,2.665q6.459,4.847,1.392,13.553a35.137,35.137,0,0,1-4.18,5.559,82.855,82.855,0,0,1-6.219,6.281q-2,1.876-4.786,4.085t-5.885,4.6q-3.1,2.39-6.309,4.7t-6.173,4.2l-1.615,1.057,5.336-.624q5.623-.658,10.055-.741a53.956,53.956,0,0,1,8.558.5,38.376,38.376,0,0,1,10.361,2.7,17.161,17.161,0,0,1,6.739,4.766q.341.443.619.749c.185.2.34.3.468.283.063-.007.526-.19,1.384-.549s1.875-.767,3.045-1.226q3.045-1.225,6.1-2.355t5.794-2.078q2.74-.948,4.833-1.628t3.131-.9q2.277-.363,2.483.579a.921.921,0,0,1-.208.7.586.586,0,0,1-.508.2c-.226-.006-.35-.1-.373-.294s-.193-.268-.51-.23a17.712,17.712,0,0,0-2.427.718q-1.951.663-4.684,1.658t-6.01,2.3q-3.277,1.3-6.511,2.548l-4.967,2.126.207.942a12.4,12.4,0,0,1-.165,7.263,26.431,26.431,0,0,1-4.8,8.1,47.345,47.345,0,0,1-5.483,5.566,66.49,66.49,0,0,1-7.009,5.311q-3.81,2.522-8.035,4.8a71.483,71.483,0,0,1-8.664,3.959q-4.166,1.55-7.344,2.452a51.684,51.684,0,0,1-6.788,1.42,35.7,35.7,0,0,1-7.292.418,11.1,11.1,0,0,1-4.7-1.335q-.935-.567-1.02-.46a5.176,5.176,0,0,0-.5,1.073q-.334.859-.752,1.826t-.752,1.826a9.249,9.249,0,0,0-.4,1.158,3.835,3.835,0,0,1-.422,1.353,3.1,3.1,0,0,1-.69.709,1.73,1.73,0,0,1-.746.231,6.339,6.339,0,0,1-.7-.16q-2.207-.708-1.773-4.429t3.612-11.241q1.212-2.847,2.518-6.138t2.652-6.637q1.348-3.345,2.611-6.584t2.3-5.967q1.482-3.844,2.339-6.02t1.21-3.281a13.248,13.248,0,0,0,.411-1.449.742.742,0,0,0-.061-.524,1.576,1.576,0,0,0-.092-.375,1.589,1.589,0,0,1-.092-.376q-.044-.381-1.215-1.307a17.857,17.857,0,0,0-2.308-1.565,17.615,17.615,0,0,0-3.292-1.306q-2.155-.667-5.029-1.3t-4.858-1.074q-1.984-.445-3.337-.865t-2.267-.8a14.329,14.329,0,0,1-1.742-.859,15.281,15.281,0,0,1-1.989-1.313,6.629,6.629,0,0,1-1.44-1.571,6.013,6.013,0,0,1-.515-1.1q-.151-.465-.368-1.5a7.8,7.8,0,0,1-.131-2.35,11.28,11.28,0,0,1,.632-2.441,21.728,21.728,0,0,1,3.841-6.388,44.647,44.647,0,0,1,6.805-6.64q1.413-1.132,3.245-2.408t3.953-2.538q2.122-1.263,4.3-2.435t4.2-2.084l-.191.022ZM759.477,909.3q-.094.011-1.665.63t-4.005,1.675q-2.436,1.057-5.51,2.431t-6.336,2.817q-3.261,1.445-6.329,2.866t-5.542,2.58q-9.234,4.46-15.3,7.922a61.051,61.051,0,0,0-9.661,6.586l-1.929,1.675-1.062,3.311q-.645,1.912-.89,2.712t-.031.969a2.7,2.7,0,0,0,.888.572,8.589,8.589,0,0,0,1.608.536q.945.227,2.025.391a12.29,12.29,0,0,0,2.046.148l1.572-.184q1.1-.129,2.376-.326t2.461-.433q1.179-.234,1.931-.419a80.828,80.828,0,0,0,8-2.625q4.16-1.6,8.311-3.677t8.026-4.464a85.446,85.446,0,0,0,7.154-4.893,45.7,45.7,0,0,0,9.823-9.745q3.178-4.622,2.721-8.528-.256-2.191-.756-2.326l.073-.2Zm-36.67-7.979q-3.789.636-6.09,1.194t-2.458.867a2.259,2.259,0,0,0-.219.606c-.09.332-.2.732-.343,1.2q-.124.594-.624,2.1t-1.095,3.026q-.438,1.21-.975,2.818T709.717,917q-.75,2.262-1.727,5.466t-2.3,7.609q-.685,2.4-1.071,3.651t-.556,1.852a3.419,3.419,0,0,0-.16.7l.011.095a7.674,7.674,0,0,0,1.508-1.142A74.106,74.106,0,0,1,713,930.185q4.83-2.883,11.067-6.123t13.6-6.758q7.363-3.517,15.363-6.964,2.293-1.041,3.947-1.765t1.749-.737q.073-.2-.694-.981a16.572,16.572,0,0,0-1.511-1.369,21.905,21.905,0,0,0-8.407-3.75,53.369,53.369,0,0,0-12.091-1.387q-3.094-.024-6.683.249a65.381,65.381,0,0,0-6.616.822l.083-.106Zm30.934-42.735a7.621,7.621,0,0,0-3.7-3.528,19.988,19.988,0,0,0-6.536-1.795,40.915,40.915,0,0,0-8.788.013,67.43,67.43,0,0,0-10.355,1.887,89.581,89.581,0,0,0-18.494,7.04,60.79,60.79,0,0,0-14.377,10.036,37.039,37.039,0,0,0-5.423,6.477,15.107,15.107,0,0,0-2.493,5.942,8.191,8.191,0,0,0-.063,1.939,4.717,4.717,0,0,0,.581,1.67,7.7,7.7,0,0,0,3.609,3.2,40.3,40.3,0,0,0,8.173,2.57q3.277.776,5.623,1.419t4.012,1.269a20.54,20.54,0,0,1,2.8,1.266,11.332,11.332,0,0,1,2,1.409q.874.863,1.137.639c.063-.007.165-.1.305-.277a3.465,3.465,0,0,1,.473-.489,3.27,3.27,0,0,0,.511-.591,10.237,10.237,0,0,0,.579-1.661q.416-1.4,1.113-4.525t2.1-9.276q.454-1.889.938-4.36t.77-4.147q.287-1.676.653-3.505t.529-2.912q.164-1.081.316-2.259t.169-1.856a7.588,7.588,0,0,1,.546-2.769.886.886,0,0,1,1.205-.43q.308.156.381-.045a.6.6,0,0,1,.644-.269l.572-.067.257,2.191q.121,1.048.191,2.054a9.151,9.151,0,0,1-.033,1.79q-.191,1.664-.945,5.133t-1.771,7.161q-.478,1.7-.939,3.539t-.647,2.732q-.2.8-.7,2.69t-.98,3.592q-.478,1.7-.809,2.992a12.541,12.541,0,0,0-.32,1.389.65.65,0,0,0,.454-.247q.18-.118,2.19-1.511t4.68-3.348q3.746-2.66,6.595-4.731t5.111-3.785q2.262-1.713,4.034-3.08t3.354-2.709q6.936-5.932,9.518-10.289t1.143-7.571l.1-.011Zm57.364,43.711q.572-.067.521.326a1.9,1.9,0,0,1-.4.723q-.274.129-2.164,1.315t-4.19,2.567q-2.3,1.381-4.376,2.637t-2.612,1.609a63.257,63.257,0,0,1-8.043,4.321,13.276,13.276,0,0,1-5.21,1.285,4.72,4.72,0,0,1-4.2-2.455,6.488,6.488,0,0,1-.116-5.54,9.058,9.058,0,0,1,2.306-3.409,5.556,5.556,0,0,1,2.983-1.749,2.078,2.078,0,0,1,2.37,1.268,2.242,2.242,0,0,1,.28.74,4.077,4.077,0,0,1-.079.975,9.091,9.091,0,0,1-1.448,3.307,8.81,8.81,0,0,1-2.407,2.551q-1.256.823.325,1.122,2.151.23,6.259-1.409a99.166,99.166,0,0,0,11.351-5.77q2.808-1.584,5.4-2.949a27.389,27.389,0,0,1,3.154-1.527l.3.062Zm-26.042,5.266a8.748,8.748,0,0,0-1.069,2.008,4.761,4.761,0,0,0-.509,1.847q.056.476,1.223-1.109a6.888,6.888,0,0,0,.87-1.647,3.854,3.854,0,0,0,.394-1.591c-.022-.19-.078-.248-.165-.173s-.3.293-.648.655l-.095.011Zm82.355,12.1q2.658-.407,3.076.7.872,2.507-3.4,1.461a18.6,18.6,0,0,0-2.767-.546q-1.272-.142-3.509-.265a68.854,68.854,0,0,0-11.083.62,84.1,84.1,0,0,0-12.014,2.564l-2.529.682-.4.723a27.115,27.115,0,0,1-2.853,4.1,52.784,52.784,0,0,1-4.238,4.648,70.472,70.472,0,0,1-6.32,5.424,63.944,63.944,0,0,1-6.718,4.5,49.27,49.27,0,0,1-6.44,3.167,22.043,22.043,0,0,1-5.473,1.509,11.367,11.367,0,0,1-2.5.1,1.037,1.037,0,0,1-.552-.177,4.211,4.211,0,0,1-.574-.368q-1.821-1.526.872-4.932a38.419,38.419,0,0,1,8.972-7.52,95.51,95.51,0,0,1,10.44-5.712,117.253,117.253,0,0,1,11.431-4.669q1.121-.325,2-.668a2.989,2.989,0,0,0,1.045-.557,4.913,4.913,0,0,0,.351-.717q.267-.611.558-1.417a7.846,7.846,0,0,0,.562-1.8,10.263,10.263,0,0,0-.105-1.726,7.689,7.689,0,0,0-.274-1.514,3.294,3.294,0,0,0-.589-.9q-2.531-3.472-9.727-3.885c-.452-.012-1.158.007-2.118.055s-2.077.129-3.351.247-2.69.266-4.245.448-3.158.4-4.8.657q-2.085.341-2.662.36a2.616,2.616,0,0,1-.98-.127q-1.244-.725-.257-2.191.9-1.361,7.929-6.529,4-2.978,6.286-4.888a29.62,29.62,0,0,0,3.477-3.3q1.609-1.927.994-2.242a1.958,1.958,0,0,0-.826-.048q-.722.037-1.482.126a22.246,22.246,0,0,0-3.581.757q-1.962.568-4.826,1.675-3.045,1.224-4.1.478a1.5,1.5,0,0,1-.78-1.309,1.655,1.655,0,0,1,.648-1.476,10.436,10.436,0,0,1,2.282-1.136,36.518,36.518,0,0,1,3.521-1.282,21.73,21.73,0,0,1,7.309-1.1q3.2.157,4.23,1.485a3.323,3.323,0,0,1-.255,3.6q-1.11,2.062-5.238,5.587a125.3,125.3,0,0,1-10.84,8.077q-1.255.823-2.1,1.453a9.379,9.379,0,0,0-.928.737q-.062.3,3.24-.379,3.6-.614,6.987-.961a46.694,46.694,0,0,1,4.84-.325q6.389.121,10.011,2.6a6.755,6.755,0,0,1,3.231,6.577,16.226,16.226,0,0,1-.366,1.83q-.266,1.045-.556,1.852-.169.212.762-.089.656-.172,1.877-.461t2.587-.593q1.364-.305,2.778-.614t2.639-.55q1.513-.274,3.556-.561t4.24-.5q2.2-.209,4.4-.322t4.029-.23q1.344-.06,2.738-.127t2.155-.155l.3.062Zm-37.35,10.163q1.106-1.288,2.067-2.56t.845-1.451a6.717,6.717,0,0,0-1.92.515q-1.719.586-4.3,1.662a94.3,94.3,0,0,0-8.956,3.945q-4.516,2.266-7.937,4.405-2.332,1.53-4.326,3.065a31.742,31.742,0,0,0-3.373,2.954,15.32,15.32,0,0,0-2.11,2.614,2.624,2.624,0,0,0-.556,1.852q.272,1.514,5.846-.393a46.671,46.671,0,0,0,8.838-4.124,82.9,82.9,0,0,0,9-6.075q.79-.672,1.708-1.5t1.829-1.711q.912-.879,1.775-1.753t1.548-1.629l.022.19Zm39.178-35.005c.5-.122.792-.109.874.042s-.124.32-.617.506q-1.48.56-4.137,1.788t-7.136,3.393q-4.373,2.25-7.585,3.688t-5.48,2.283a28.37,28.37,0,0,1-3.728,1.16,6.487,6.487,0,0,1-2.447.142q-4.634-.811-4.148-6.566a7.138,7.138,0,0,1,1.5-4.135,2.579,2.579,0,0,1,4.514,1.018,2.324,2.324,0,0,1,0,1.255,6.682,6.682,0,0,1-1,1.758,8.93,8.93,0,0,0-1.033,1.907,3.373,3.373,0,0,0-.315,1.438q.178,1.524,3.132,1.178,3.811-.445,16.184-6.142,4.862-2.211,7.762-3.419a20.107,20.107,0,0,1,3.664-1.3Zm-27.615-1.986a3.041,3.041,0,0,1-1.3-.235c-.894-.346-1.364-1.193-1.393-2.542a5.32,5.32,0,0,1,1.04-3.357,2.976,2.976,0,0,1,2.461-1.4,2.853,2.853,0,0,1,1.18.586,2.049,2.049,0,0,1,.747,1.023,2.4,2.4,0,0,1-.082,1.361,3.721,3.721,0,0,1-.844,1.451,1.566,1.566,0,0,0-.343,1.2c.133,1.143-.324,1.777-1.355,1.9l-.111.013Z" transform="translate(-291.399 -312.34)" fill="#fff"/>
  </g>
</svg>
